<svg xmlns="http://www.w3.org/2000/svg" width="600" height="315" viewBox="0 0 600 315">
  <g fill="none" fill-rule="evenodd">
    <path fill="#004CE6" d="M0 0h600v315H0z"/>
    <g fill="#FFF" transform="translate(72 72)">
      <circle cx="56.023" cy="6.934" r="6.656"/>
      <path fill-rule="nonzero" d="M8.256 19.691c0 15.047 12.197 27.245 27.244 27.245 14.87 0 26.957-11.913 27.24-26.715l.004-.53H71c0 19.607-15.894 35.5-35.5 35.5C16.09 55.191.318 39.614.005 20.278L0 19.691h8.256z"/>
      <path fill-rule="nonzero" d="M31.261 33.559c2.893 0 5.072-.91 6.577-2.726l.357 2.41h5.348V18.9H32.371v5.136h4.675c-.753 2.213-2.536 3.516-5.349 3.516-3.724 0-6.774-3.12-6.774-8.138s3.01-8.14 6.893-8.14c2.892 0 5.19 1.858 5.784 4.584l6.22-1.62C42.394 8.51 38.076 5.27 31.895 5.27c-7.25-.079-13.708 5.018-13.589 14.145 0 9.126 5.983 14.144 12.955 14.144z"/>
    </g>
    <g fill-rule="nonzero">
      <path fill="#A6B5FF" d="M75.654 239v-6.321h3.339c2.772 0 4.368-1.596 4.368-4.2 0-2.583-1.596-4.179-4.368-4.179h-5.166V239h1.827zm3.318-8.022h-3.318v-4.977h3.318c1.701 0 2.499.945 2.499 2.478 0 1.575-.798 2.499-2.499 2.499zM87.519 239v-3.99c0-3.381 1.197-5.187 2.877-5.187.483 0 .924.126 1.365.357l.357-1.617c-.525-.21-1.029-.315-1.491-.315-1.344 0-2.436.714-3.108 1.995v-1.827h-1.743V239h1.743zm16.065-5.292c.042-2.877-2.016-5.523-5.082-5.46-2.991-.061-5.043 2.456-5.102 5.25l-.001.21c-.041 2.807 1.937 5.394 4.88 5.46h.223c3.066.063 5.124-2.583 5.082-5.46zm-5.082 3.906c-2.079 0-3.297-1.848-3.297-3.906s1.218-3.906 3.297-3.906 3.276 1.848 3.276 3.906-1.197 3.906-3.276 3.906zm11.697 1.554c1.344 0 2.646-.714 3.171-1.554V239h1.722v-14.868h-1.722v5.607c-.693-.924-1.827-1.491-3.171-1.491-2.982 0-4.683 2.31-4.683 5.46s1.701 5.46 4.683 5.46zm.231-1.554c-1.932 0-3.108-1.575-3.108-3.906 0-2.331 1.176-3.906 3.108-3.906 1.932 0 3.087 1.575 3.087 3.906 0 2.352-1.155 3.906-3.087 3.906zm11.067 1.554c1.449 0 2.772-.861 3.528-2.205V239h1.722v-10.584h-1.722v4.494c0 2.898-1.365 4.704-3.108 4.704-1.26 0-1.932-.756-1.932-2.205v-6.993h-1.743v7.371c0 2.163 1.26 3.381 3.255 3.381zm12.642 0c2.163 0 3.675-1.008 4.431-2.961l-1.554-.609c-.588 1.344-1.47 2.016-2.877 2.016-1.995 0-3.045-1.638-3.045-3.906 0-2.289 1.05-3.906 3.045-3.906 1.365 0 2.331.672 2.877 2.016l1.554-.609c-.735-1.974-2.226-2.961-4.431-2.961-3.129 0-4.851 2.541-4.851 5.46s1.722 5.46 4.851 5.46zm10.353 0c.693 0 1.302-.126 1.806-.378l-.441-1.47c-.336.189-.735.294-1.218.294-.987 0-1.47-.567-1.47-1.722v-5.922h2.835v-1.554h-2.835v-4.284l-1.743 1.113v3.171h-1.785v1.554h1.785v5.796c0 2.268 1.155 3.402 3.066 3.402zm13.503-.168c3.738 0 6.741-2.688 6.741-7.35 0-4.662-3.003-7.35-6.741-7.35H153.9V239h4.095zm-.273-1.701h-1.995v-11.298h1.995c2.73 0 5.124 1.68 5.124 5.649 0 3.969-2.394 5.649-5.124 5.649zm13.86 1.869c2.163 0 3.528-.903 4.536-2.982l-1.47-.63c-.735 1.449-1.575 2.058-3.024 2.058-1.869 0-3.024-1.47-3.108-3.633h7.791v-.735c0-2.772-1.806-4.998-4.725-4.998-3.003 0-4.83 2.457-4.83 5.46 0 2.94 1.827 5.46 4.83 5.46zm2.961-6.678h-5.922c.357-1.743 1.512-2.688 2.961-2.688 1.68 0 2.709 1.029 2.961 2.688zm7.581 6.678c2.037 0 3.381-1.218 3.381-3.213 0-1.386-.861-2.394-2.583-3.024-1.764-.651-2.352-1.071-2.352-1.848 0-.777.609-1.281 1.386-1.281.819 0 1.47.378 1.953 1.113l1.134-1.008c-.693-1.113-1.701-1.659-3.066-1.659-1.785 0-3.087 1.155-3.087 2.835 0 1.533.945 2.394 2.625 3.003 1.512.567 2.289 1.029 2.289 1.932 0 1.008-.651 1.596-1.68 1.596-1.323 0-2.079-.756-2.499-2.1l-1.449.777c.42 1.596 1.785 2.877 3.948 2.877zm6.72-12.537c.735 0 1.281-.525 1.281-1.26s-.546-1.26-1.281-1.26c-.693 0-1.26.525-1.26 1.26 0 .693.567 1.26 1.26 1.26zm.882 12.369v-10.584h-1.743V239h1.743zm6.867 4.452c1.323 0 2.394-.294 3.234-.903.84-.609 1.26-1.512 1.26-2.751 0-1.911-1.323-2.877-3.36-2.877h-2.541c-.693 0-1.197-.294-1.197-.945 0-.462.252-.819.735-1.05.567.273 1.176.42 1.848.42 2.079 0 3.675-1.386 3.675-3.549 0-.756-.21-1.428-.63-2.037l1.491-.798-.756-1.302-1.911 1.071c-.609-.315-1.218-.483-1.869-.483-2.058 0-3.696 1.428-3.696 3.549 0 .903.252 1.659.777 2.289-.777.399-1.302 1.092-1.302 1.995 0 .777.252 1.344.756 1.701a2.764 2.764 0 00-1.029 2.184c0 2.184 1.764 3.486 4.515 3.486zm-.021-9.555c-1.155 0-2.016-.819-2.016-2.1 0-1.281.861-2.1 2.016-2.1s2.016.819 2.016 2.1c0 1.281-.861 2.1-2.016 2.1zm.021 8.043c-1.848 0-2.877-.756-2.877-2.016 0-.735.231-1.26.714-1.596.336.042.693.063 1.092.063h1.911c1.26 0 1.953.462 1.953 1.575 0 1.197-1.029 1.974-2.793 1.974zm8.316-2.94v-4.515c0-2.877 1.365-4.683 3.087-4.683 1.281 0 1.953.756 1.953 2.205V239h1.722v-7.371c0-2.163-1.26-3.381-3.255-3.381-1.428 0-2.751.861-3.507 2.205v-2.037h-1.743V239h1.743zm14.133.168c2.163 0 3.528-.903 4.536-2.982l-1.47-.63c-.735 1.449-1.575 2.058-3.024 2.058-1.869 0-3.024-1.47-3.108-3.633h7.791v-.735c0-2.772-1.806-4.998-4.725-4.998-3.003 0-4.83 2.457-4.83 5.46 0 2.94 1.827 5.46 4.83 5.46zm2.961-6.678h-5.922c.357-1.743 1.512-2.688 2.961-2.688 1.68 0 2.709 1.029 2.961 2.688zm6.069 6.51v-3.99c0-3.381 1.197-5.187 2.877-5.187.483 0 .924.126 1.365.357l.357-1.617c-.525-.21-1.029-.315-1.491-.315-1.344 0-2.436.714-3.108 1.995v-1.827h-1.743V239h1.743zm24.696-5.901v-1.512h-13.083v1.512h13.083zM265.41 239c3.738 0 6.741-2.688 6.741-7.35 0-4.662-3.003-7.35-6.741-7.35h-4.095V239h4.095zm-.273-1.701h-1.995v-11.298h1.995c2.73 0 5.124 1.68 5.124 5.649 0 3.969-2.394 5.649-5.124 5.649zm13.86 1.869c2.163 0 3.528-.903 4.536-2.982l-1.47-.63c-.735 1.449-1.575 2.058-3.024 2.058-1.869 0-3.024-1.47-3.108-3.633h7.791v-.735c0-2.772-1.806-4.998-4.725-4.998-3.003 0-4.83 2.457-4.83 5.46 0 2.94 1.827 5.46 4.83 5.46zm2.961-6.678h-5.922c.357-1.743 1.512-2.688 2.961-2.688 1.68 0 2.709 1.029 2.961 2.688zm8.379 6.51l3.57-10.584h-1.785l-2.646 8.358-2.667-8.358h-1.785l3.57 10.584h1.743zm9.681.168c2.163 0 3.528-.903 4.536-2.982l-1.47-.63c-.735 1.449-1.575 2.058-3.024 2.058-1.869 0-3.024-1.47-3.108-3.633h7.791v-.735c0-2.772-1.806-4.998-4.725-4.998-3.003 0-4.83 2.457-4.83 5.46 0 2.94 1.827 5.46 4.83 5.46zm2.961-6.678h-5.922c.357-1.743 1.512-2.688 2.961-2.688 1.68 0 2.709 1.029 2.961 2.688zm6.069 6.51v-14.868h-1.743V239h1.743zm12.726-5.292c.042-2.877-2.016-5.523-5.082-5.46-2.991-.061-5.043 2.456-5.102 5.25l-.001.21c-.041 2.807 1.937 5.394 4.88 5.46h.223c3.066.063 5.124-2.583 5.082-5.46zm-5.082 3.906c-2.079 0-3.297-1.848-3.297-3.906s1.218-3.906 3.297-3.906 3.276 1.848 3.276 3.906-1.197 3.906-3.276 3.906zm9.366 5.67v-5.607c.609.903 1.89 1.491 3.087 1.491 3.045 0 4.746-2.31 4.746-5.46s-1.701-5.46-4.746-5.46c-1.344 0-2.583.714-3.087 1.533v-1.365h-1.743v14.868h1.743zm2.919-5.67c-1.911 0-3.087-1.575-3.087-3.906 0-2.331 1.155-3.906 3.087-3.906 1.932 0 3.108 1.575 3.108 3.906 0 2.331-1.176 3.906-3.108 3.906zm11.676 1.554c2.163 0 3.528-.903 4.536-2.982l-1.47-.63c-.735 1.449-1.575 2.058-3.024 2.058-1.869 0-3.024-1.47-3.108-3.633h7.791v-.735c0-2.772-1.806-4.998-4.725-4.998-3.003 0-4.83 2.457-4.83 5.46 0 2.94 1.827 5.46 4.83 5.46zm2.961-6.678h-5.922c.357-1.743 1.512-2.688 2.961-2.688 1.68 0 2.709 1.029 2.961 2.688zm6.069 6.51v-3.99c0-3.381 1.197-5.187 2.877-5.187.483 0 .924.126 1.365.357l.357-1.617c-.525-.21-1.029-.315-1.491-.315-1.344 0-2.436.714-3.108 1.995v-1.827h-1.743V239h1.743z"/>
      <path fill="#FFF" d="M77.76 211.192c3.48 0 5.352-1.752 5.352-6.096V194.2h-3.12v11.232c0 2.112-.792 2.88-2.232 2.88-1.128 0-1.824-.648-2.112-2.112l-3.072.648c.36 2.712 2.28 4.344 5.184 4.344zm11.808 0c1.536 0 2.784-.576 3.72-1.728L93.6 211h2.448v-7.224c0-3.336-1.848-5.064-5.088-5.064-2.4 0-4.224 1.344-4.608 3.36l2.52.576c.36-.936 1.056-1.392 2.088-1.392 1.224 0 2.112.6 2.112 1.776v.528H90.96c-3.096 0-5.064 1.56-5.064 3.96 0 2.328 1.536 3.672 3.672 3.672zm.792-2.544c-.792 0-1.344-.48-1.344-1.176 0-1.056.744-1.56 2.064-1.56h1.992v.24c0 1.512-1.272 2.496-2.712 2.496zM102.144 211v-4.824c0-3.096 1.296-4.92 2.76-4.92 1.056 0 1.728.624 1.728 1.992V211h2.976v-8.64c0-2.376-1.488-3.648-3.72-3.648-1.512 0-2.808.816-3.744 2.136v-1.944h-2.976V211h2.976zm16.296.192c3.816 0 6.144-2.688 6.144-6.24s-2.328-6.24-6.144-6.24c-3.816 0-6.144 2.688-6.144 6.24s2.328 6.24 6.144 6.24zm0-2.544c-.936 0-1.656-.36-2.208-1.056-.552-.72-.816-1.608-.816-2.64s.264-1.92.816-2.616c.552-.72 1.272-1.08 2.208-1.08.936 0 1.656.36 2.208 1.08.552.696.816 1.584.816 2.616s-.264 1.92-.816 2.64c-.552.696-1.272 1.056-2.208 1.056zm21.96 2.544c1.992 0 3.336-.84 4.08-1.992l.264 1.8h2.616v-8.472h-6.144v2.592h3.12c-.216 1.728-1.488 3.192-3.768 3.192-2.808 0-4.752-1.872-4.752-5.712 0-3.744 1.968-5.712 4.824-5.712 1.896 0 3.264 1.056 4.128 3.168l2.856-.744c-.888-3.192-3.36-5.304-6.984-5.304-4.272 0-7.992 3.048-7.992 8.592-.072 5.544 3.648 8.64 7.752 8.592zm13.344 0c1.536 0 2.784-.576 3.72-1.728l.312 1.536h2.448v-7.224c0-3.336-1.848-5.064-5.088-5.064-2.4 0-4.224 1.344-4.608 3.36l2.52.576c.36-.936 1.056-1.392 2.088-1.392 1.224 0 2.112.6 2.112 1.776v.528h-2.112c-3.096 0-5.064 1.56-5.064 3.96 0 2.328 1.536 3.672 3.672 3.672zm.792-2.544c-.792 0-1.344-.48-1.344-1.176 0-1.056.744-1.56 2.064-1.56h1.992v.24c0 1.512-1.272 2.496-2.712 2.496zM166.32 211v-4.296c0-3.672 1.344-5.328 3.24-5.328.456 0 .888.12 1.248.336l.552-2.76a4.777 4.777 0 00-1.464-.24c-1.416 0-2.712.792-3.576 2.16v-1.968h-2.976V211h2.976zm12.264.192c2.688 0 4.608-1.176 5.496-3.456l-2.664-1.08c-.648 1.32-1.512 1.992-2.832 1.992-1.824 0-2.784-1.488-2.784-3.696s.96-3.696 2.784-3.696c1.32 0 2.184.672 2.832 1.992l2.664-1.08c-.888-2.28-2.808-3.456-5.496-3.456-3.84 0-5.904 2.736-5.904 6.24s2.064 6.24 5.904 6.24zm9.528-13.848c1.08 0 1.92-.84 1.92-1.92s-.84-1.92-1.92-1.92-1.92.84-1.92 1.92.84 1.92 1.92 1.92zM189.6 211v-12.096h-2.976V211h2.976zm6.408.192c1.536 0 2.784-.576 3.72-1.728l.312 1.536h2.448v-7.224c0-3.336-1.848-5.064-5.088-5.064-2.4 0-4.224 1.344-4.608 3.36l2.52.576c.36-.936 1.056-1.392 2.088-1.392 1.224 0 2.112.6 2.112 1.776v.528H197.4c-3.096 0-5.064 1.56-5.064 3.96 0 2.328 1.536 3.672 3.672 3.672zm.792-2.544c-.792 0-1.344-.48-1.344-1.176 0-1.056.744-1.56 2.064-1.56h1.992v.24c0 1.512-1.272 2.496-2.712 2.496z"/>
    </g>
  </g>
</svg>
