<svg xmlns="http://www.w3.org/2000/svg" xmlns:xlink="http://www.w3.org/1999/xlink" width="600" height="315" viewBox="0 0 600 315">
  <defs>
    <linearGradient id="a" x1="100%" x2="0%" y1="50%" y2="50%">
      <stop offset="0%" stop-color="#053885" stop-opacity=".04"/>
      <stop offset="100%" stop-color="#053885" stop-opacity="0"/>
    </linearGradient>
    <linearGradient id="b" x1="0%" x2="100%" y1="50%" y2="50%">
      <stop offset="0%" stop-color="#053885" stop-opacity="0"/>
      <stop offset="100%" stop-color="#053885" stop-opacity=".08"/>
    </linearGradient>
    <linearGradient id="c" x1="100%" x2="0%" y1="50%" y2="50%">
      <stop offset="0%" stop-color="#053885" stop-opacity=".02"/>
      <stop offset="100%" stop-color="#053885" stop-opacity="0"/>
    </linearGradient>
    <linearGradient id="f" x1="-4.545%" x2="102.193%" y1="59.091%" y2="59.091%">
      <stop offset="0%" stop-color="#003DE6"/>
      <stop offset="100%" stop-color="#9673FF"/>
    </linearGradient>
    <filter id="e" width="102%" height="102%" x="-1%" y="-1%" filterUnits="objectBoundingBox">
      <feMorphology in="SourceAlpha" operator="dilate" radius="1" result="shadowSpreadInner1"/>
      <feGaussianBlur in="shadowSpreadInner1" result="shadowBlurInner1" stdDeviation="2"/>
      <feOffset dx="1" dy="1" in="shadowBlurInner1" result="shadowOffsetInner1"/>
      <feComposite in="shadowOffsetInner1" in2="SourceAlpha" k2="-1" k3="1" operator="arithmetic" result="shadowInnerInner1"/>
      <feColorMatrix in="shadowInnerInner1" values="0 0 0 0 0.0196078431 0 0 0 0 0.219607843 0 0 0 0 0.521568627 0 0 0 0.08 0"/>
    </filter>
    <path id="d" d="M480 304c0 30.284-24.038 54.953-54.075 55.968L424 360c-30.928 0-56-25.072-56-56v-56.975c0-9.062 8.206-15.911 17.123-14.29L440 242.703v24.392l-48-8.72V304c0 17.673 14.327 32 32 32 17.673 0 32-14.327 32-32v-88c0-30.284 24.038-54.953 54.075-55.968L512 160c30.928 0 56 25.072 56 56v56.975c0 9.062-8.206 15.911-17.123 14.29L496 277.289v-24.392l48 8.72V216c0-17.138-13.472-31.129-30.403-31.96L512 184c-17.673 0-32 14.327-32 32v88Z"/>
  </defs>
  <g fill="none" fill-rule="evenodd">
    <path fill="#FFF" d="M0 0h600v315H0z"/>
    <path fill="url(#a)" stroke="url(#b)" stroke-width=".5" d="M600.25-.25v315.017L-.25 275.234V-.25h600.5Z"/>
    <path fill="url(#c)" stroke="url(#b)" stroke-width=".5" d="m-.25 274.733 68.95 4.539-68.95 36.141v-40.68ZM600.25.087v314.68L66.894 279.654 600.25.087Z"/>
    <g fill-rule="nonzero">
      <use xlink:href="#d" fill="#053885" fill-opacity=".02"/>
      <use xlink:href="#d" fill="#000" filter="url(#e)"/>
      <path stroke="#053885" stroke-linejoin="square" stroke-opacity=".02" stroke-width=".5" d="M512 160.25c15.395 0 29.333 6.24 39.421 16.329C561.51 186.667 567.75 200.605 567.75 216v56.975c0 4.453-2.016 8.362-5.128 10.96a14.208 14.208 0 0 1-11.7 3.085l-54.672-9.94v-23.884l48 8.72V216a32.14 32.14 0 0 0-8.88-22.224c-5.53-5.814-13.207-9.566-21.767-9.987L512 183.75c-8.906 0-16.968 3.61-22.804 9.446-5.836 5.836-9.446 13.898-9.446 22.804v88c0 15.048-5.962 28.704-15.652 38.733-9.725 10.065-23.204 16.479-38.177 16.985l-1.921.032c-15.395 0-29.333-6.24-39.421-16.329C374.49 333.333 368.25 319.395 368.25 304v-56.975c0-4.453 2.016-8.362 5.128-10.96a14.208 14.208 0 0 1 11.7-3.085l54.672 9.933v23.883l-48-8.72V304c0 8.906 3.61 16.968 9.446 22.804 5.836 5.836 13.898 9.446 22.804 9.446 8.906 0 16.968-3.61 22.804-9.446 5.836-5.836 9.446-13.898 9.446-22.804v-88c0-15.048 5.962-28.703 15.652-38.733 9.725-10.065 23.204-16.479 38.177-16.985Z"/>
    </g>
    <g fill-rule="nonzero">
      <path fill="#5D6C7A" d="M73.346 239v-12.6h4.117c.992 0 1.808.164 2.446.491.638.328 1.11.77 1.418 1.325.307.556.46 1.185.46 1.887a3.86 3.86 0 0 1-.454 1.872c-.303.558-.773 1.003-1.41 1.335-.638.331-1.458.497-2.46.497h-2.605V239h-1.513Zm1.511-6.471h2.575c1.01 0 1.731-.22 2.162-.66.43-.439.646-1.028.646-1.766 0-.774-.216-1.374-.646-1.802-.43-.427-1.151-.641-2.162-.641h-2.575v4.869ZM83.696 239v-9.063h1.368l.121 1.728a3.32 3.32 0 0 1 .779-1.053 3.3 3.3 0 0 1 1.154-.662 4.72 4.72 0 0 1 1.528-.229v1.584H88.1c-.387 0-.755.05-1.105.15-.35.101-.659.264-.929.489-.27.225-.48.532-.632.923-.152.39-.227.875-.227 1.458V239h-1.512Zm10.717.216c-.845 0-1.603-.195-2.275-.585a4.149 4.149 0 0 1-1.587-1.655c-.385-.713-.578-1.548-.578-2.502 0-.967.196-1.805.587-2.517a4.197 4.197 0 0 1 1.605-1.651c.678-.39 1.439-.585 2.284-.585.856 0 1.62.195 2.29.585.67.39 1.198.94 1.584 1.649.385.71.578 1.548.578 2.517 0 .958-.196 1.793-.587 2.505a4.198 4.198 0 0 1-1.602 1.654c-.677.39-1.443.585-2.3.585Zm.007-1.296c.524 0 1.009-.128 1.453-.385.444-.256.801-.642 1.073-1.157.271-.516.407-1.153.407-1.911 0-.77-.133-1.41-.398-1.918-.266-.508-.62-.89-1.062-1.147a2.83 2.83 0 0 0-1.444-.385 2.84 2.84 0 0 0-1.436.385c-.449.256-.81.64-1.082 1.149-.273.509-.41 1.148-.41 1.918 0 .759.136 1.395.407 1.91.272.514.627.9 1.065 1.156.438.257.913.385 1.427.385Zm10.624 1.296c-.876 0-1.645-.207-2.307-.621a4.205 4.205 0 0 1-1.539-1.699c-.364-.718-.546-1.534-.546-2.446 0-.915.182-1.727.546-2.439.365-.71.88-1.27 1.546-1.678.666-.408 1.439-.612 2.318-.612.735 0 1.383.15 1.944.45.56.3.993.72 1.296 1.26v-5.391h1.512V239h-1.368l-.14-1.485a3.957 3.957 0 0 1-.731.826c-.299.26-.657.47-1.076.632-.418.162-.903.243-1.455.243Zm.17-1.314c.6 0 1.13-.142 1.587-.428a2.872 2.872 0 0 0 1.066-1.199c.254-.514.38-1.117.38-1.807s-.126-1.292-.38-1.806a2.872 2.872 0 0 0-1.066-1.2c-.458-.285-.986-.427-1.586-.427-.582 0-1.102.142-1.56.427a2.902 2.902 0 0 0-1.07 1.2c-.257.514-.385 1.116-.385 1.806s.128 1.293.384 1.807c.257.515.614.914 1.071 1.2.458.285.978.427 1.56.427Zm10.396 1.314c-.696 0-1.305-.139-1.825-.416-.52-.278-.923-.703-1.206-1.276-.284-.573-.425-1.294-.425-2.165v-5.422h1.512v5.26c0 .908.198 1.589.594 2.042.396.454.96.681 1.69.681.505 0 .96-.122 1.363-.367.403-.244.722-.6.956-1.065.234-.466.351-1.036.351-1.709v-4.842h1.512V239h-1.368l-.09-1.58a3.103 3.103 0 0 1-1.228 1.319c-.54.318-1.152.477-1.836.477Zm11.124 0c-.855 0-1.622-.198-2.3-.595a4.22 4.22 0 0 1-1.597-1.664c-.387-.713-.58-1.541-.58-2.484 0-.954.193-1.786.58-2.495a4.238 4.238 0 0 1 1.597-1.66c.678-.398 1.446-.597 2.303-.597 1.071 0 1.967.279 2.687.837.72.558 1.178 1.305 1.373 2.241h-1.548a2.04 2.04 0 0 0-.887-1.314c-.47-.312-1.018-.468-1.646-.468-.516 0-.996.129-1.438.387-.443.258-.799.643-1.069 1.154-.27.512-.405 1.149-.405 1.91 0 .565.079 1.065.236 1.5.158.434.37.798.637 1.09a2.6 2.6 0 0 0 .932.66c.354.147.723.22 1.107.22.424 0 .81-.07 1.159-.211a2.34 2.34 0 0 0 .885-.617c.242-.27.405-.594.49-.972h1.547a3.707 3.707 0 0 1-1.375 2.226c-.724.568-1.62.852-2.688.852Zm9.756-.216c-.54 0-1.008-.084-1.404-.252a1.798 1.798 0 0 1-.91-.855c-.21-.402-.314-.945-.314-1.629v-5.049h-1.575v-1.278h1.575l.198-2.196h1.314v2.196h2.641v1.278h-2.641v5.049c0 .564.114.945.342 1.143.228.198.63.297 1.206.297h.976V239h-1.408Zm8.37 0v-12.6h3.712c1.472 0 2.687.255 3.646.765.96.51 1.67 1.236 2.132 2.178.462.942.693 2.073.693 3.393 0 1.296-.23 2.412-.693 3.348-.462.936-1.172 1.656-2.132 2.16-.959.504-2.174.756-3.646.756h-3.712Zm1.512-1.26h2.164c1.22 0 2.193-.201 2.918-.603a3.44 3.44 0 0 0 1.555-1.728c.312-.75.468-1.641.468-2.673 0-1.056-.156-1.962-.468-2.718a3.478 3.478 0 0 0-1.555-1.746c-.725-.408-1.698-.612-2.918-.612h-2.164v10.08Zm14.768 1.476c-.848 0-1.601-.197-2.258-.592a4.139 4.139 0 0 1-1.548-1.66c-.375-.713-.563-1.544-.563-2.496 0-.96.185-1.793.556-2.501a4.07 4.07 0 0 1 1.55-1.654c.663-.395 1.43-.592 2.3-.592.885 0 1.638.197 2.259.592a3.955 3.955 0 0 1 1.426 1.557 4.55 4.55 0 0 1 .495 2.108v.38c0 .134-.006.284-.018.452h-7.434v-1.17h5.963c-.033-.833-.305-1.482-.815-1.946-.51-.463-1.147-.695-1.912-.695-.513 0-.99.116-1.43.349a2.69 2.69 0 0 0-1.061 1.021c-.269.449-.403 1.01-.403 1.685v.504c0 .748.137 1.372.41 1.875.273.502.629.879 1.068 1.13.44.25.912.375 1.416.375.636 0 1.16-.14 1.57-.42.411-.281.711-.666.9-1.155h1.494a3.822 3.822 0 0 1-2.106 2.48c-.534.249-1.153.373-1.858.373Zm9.658 0c-.744 0-1.398-.125-1.96-.374a3.22 3.22 0 0 1-1.337-1.053 3.405 3.405 0 0 1-.61-1.597h1.549c.066.315.195.605.387.87.192.266.453.478.785.637.331.16.733.239 1.204.239.426 0 .776-.063 1.05-.189.275-.126.48-.296.617-.51.136-.215.205-.45.205-.705 0-.369-.087-.651-.261-.846-.174-.195-.429-.347-.763-.457a9.426 9.426 0 0 0-1.213-.294 8.96 8.96 0 0 1-1.174-.293 4.327 4.327 0 0 1-1.022-.475 2.22 2.22 0 0 1-.713-.729c-.176-.292-.263-.647-.263-1.064 0-.516.133-.974.4-1.375.267-.4.647-.714 1.139-.94.492-.227 1.072-.34 1.741-.34.966 0 1.75.234 2.354.702.603.468.954 1.143 1.053 2.025h-1.494c-.051-.453-.244-.808-.579-1.064-.334-.257-.785-.385-1.352-.385-.567 0-.997.114-1.291.342a1.084 1.084 0 0 0-.441.9c0 .24.08.453.24.639.16.186.402.343.725.47a6.73 6.73 0 0 0 1.181.326c.6.112 1.146.256 1.638.433.492.176.89.441 1.193.794.303.352.453.854.45 1.505.009.561-.13 1.053-.414 1.476-.285.423-.684.75-1.197.983-.513.233-1.122.349-1.827.349Zm5.778-.216v-9.063h1.512V239h-1.512Zm.756-10.998a1.013 1.013 0 0 1-1.044-1.044c0-.3.099-.543.297-.729.198-.186.447-.279.747-.279.288 0 .534.093.738.279a.94.94 0 0 1 .306.729c0 .3-.102.549-.306.747-.204.198-.45.297-.738.297Zm6.984 15.174c-.816 0-1.539-.105-2.167-.315-.629-.21-1.118-.531-1.467-.963-.35-.432-.524-.966-.524-1.602 0-.273.057-.565.17-.875.115-.31.313-.616.595-.916.282-.3.68-.57 1.197-.81l1.044.612c-.63.264-1.043.566-1.238.905-.195.339-.292.652-.292.94 0 .396.114.726.344.99.23.264.547.462.954.594.406.132.868.198 1.384.198.513 0 .955-.073 1.327-.22.372-.148.66-.352.866-.615.206-.262.309-.572.309-.929 0-.414-.156-.762-.466-1.044-.31-.282-.902-.447-1.775-.495a17.351 17.351 0 0 1-1.79-.198 7.181 7.181 0 0 1-1.187-.297 3.513 3.513 0 0 1-.785-.387 4.922 4.922 0 0 1-.567-.45v-.414l1.755-1.737 1.314.468-1.81 1.629.235-.63c.132.096.258.184.378.263.12.08.282.15.488.212.205.061.49.117.855.168.364.051.85.101 1.456.149.819.06 1.477.204 1.975.432s.859.534 1.082.918c.224.384.336.837.336 1.359 0 .513-.141 1.002-.423 1.467-.282.465-.717.847-1.305 1.145-.588.299-1.344.448-2.268.448Zm-.018-7.02c-.76 0-1.404-.143-1.933-.428a2.964 2.964 0 0 1-1.208-1.158 3.253 3.253 0 0 1-.414-1.632c0-.6.138-1.14.416-1.622a3.058 3.058 0 0 1 1.21-1.159c.53-.29 1.173-.436 1.929-.436.762 0 1.407.145 1.935.436.528.291.93.678 1.206 1.16.276.48.414 1.021.414 1.621 0 .6-.138 1.144-.414 1.632a2.967 2.967 0 0 1-1.206 1.159c-.528.284-1.173.427-1.935.427Zm0-1.242c.645 0 1.155-.168 1.532-.504.376-.336.565-.827.565-1.472 0-.636-.189-1.12-.565-1.455-.377-.335-.887-.502-1.532-.502-.636 0-1.149.167-1.537.502-.389.334-.583.82-.583 1.455 0 .645.193 1.136.578 1.472.386.336.9.504 1.542.504Zm1.476-3.699-.45-1.278h3.708v1.134l-3.258.144Zm4.995 7.785v-9.063h1.368l.085 1.575a3.18 3.18 0 0 1 1.23-1.314c.536-.318 1.146-.477 1.83-.477.705 0 1.316.139 1.832.416.516.278.918.702 1.206 1.274.288.571.432 1.293.432 2.166V239h-1.512v-5.26c0-.904-.2-1.583-.601-2.039-.4-.456-.967-.684-1.699-.684a2.55 2.55 0 0 0-1.357.367c-.4.244-.717.598-.951 1.062-.234.463-.351 1.034-.351 1.712V239h-1.512Zm10.368-4.68v-1.278h7.127v1.278zm9.788 4.68v-12.6h7.793v1.242h-6.281v4.392h5.741v1.224h-5.741v4.5h6.281V239zm10.079 0v-9.063h1.368l.086 1.575a3.18 3.18 0 0 1 1.23-1.314c.536-.318 1.146-.477 1.83-.477.705 0 1.315.139 1.831.416.516.278.918.702 1.206 1.274.288.571.432 1.293.432 2.166V239h-1.512v-5.26c0-.904-.2-1.583-.6-2.039-.401-.456-.967-.684-1.7-.684-.503 0-.956.122-1.356.367-.4.244-.718.598-.952 1.062-.234.463-.35 1.034-.35 1.712V239h-1.513Zm13.91 4.176c-.816 0-1.539-.105-2.167-.315-.629-.21-1.118-.531-1.467-.963-.35-.432-.524-.966-.524-1.602 0-.273.057-.565.17-.875.115-.31.313-.616.595-.916.282-.3.68-.57 1.197-.81l1.044.612c-.63.264-1.043.566-1.238.905-.195.339-.292.652-.292.94 0 .396.114.726.344.99.23.264.547.462.954.594.406.132.868.198 1.384.198.513 0 .955-.073 1.327-.22.372-.148.66-.352.866-.615.206-.262.309-.572.309-.929 0-.414-.156-.762-.466-1.044-.31-.282-.902-.447-1.775-.495a17.351 17.351 0 0 1-1.79-.198 7.181 7.181 0 0 1-1.187-.297 3.513 3.513 0 0 1-.785-.387 4.922 4.922 0 0 1-.567-.45v-.414l1.755-1.737 1.314.468-1.81 1.629.235-.63c.132.096.258.184.378.263.12.08.282.15.488.212.205.061.49.117.855.168.364.051.85.101 1.456.149.819.06 1.477.204 1.975.432s.859.534 1.082.918c.224.384.336.837.336 1.359 0 .513-.141 1.002-.423 1.467-.282.465-.717.847-1.305 1.145-.588.299-1.344.448-2.268.448Zm-.018-7.02c-.76 0-1.404-.143-1.933-.428a2.964 2.964 0 0 1-1.208-1.158 3.253 3.253 0 0 1-.414-1.632c0-.6.138-1.14.416-1.622a3.058 3.058 0 0 1 1.21-1.159c.53-.29 1.173-.436 1.929-.436.762 0 1.407.145 1.935.436.528.291.93.678 1.206 1.16.276.48.414 1.021.414 1.621 0 .6-.138 1.144-.414 1.632a2.967 2.967 0 0 1-1.206 1.159c-.528.284-1.173.427-1.935.427Zm0-1.242c.645 0 1.155-.168 1.532-.504.376-.336.565-.827.565-1.472 0-.636-.189-1.12-.565-1.455-.377-.335-.887-.502-1.532-.502-.636 0-1.149.167-1.537.502-.389.334-.583.82-.583 1.455 0 .645.193 1.136.578 1.472.386.336.9.504 1.542.504Zm1.476-3.699-.45-1.278h3.708v1.134l-3.258.144Zm5.152 7.785v-9.063h1.512V239h-1.512Zm.756-10.998a1.013 1.013 0 0 1-1.044-1.044c0-.3.1-.543.297-.729.198-.186.447-.279.747-.279.288 0 .534.093.738.279a.94.94 0 0 1 .306.729c0 .3-.102.549-.306.747-.204.198-.45.297-.738.297ZM245.678 239v-9.063h1.368l.085 1.575a3.18 3.18 0 0 1 1.231-1.314c.535-.318 1.145-.477 1.83-.477.704 0 1.315.139 1.83.416.517.278.919.702 1.207 1.274.288.571.432 1.293.432 2.166V239h-1.512v-5.26c0-.904-.2-1.583-.601-2.039-.4-.456-.967-.684-1.699-.684a2.55 2.55 0 0 0-1.357.367c-.4.244-.717.598-.951 1.062-.234.463-.351 1.034-.351 1.712V239h-1.512Zm14.314.216c-.849 0-1.602-.197-2.259-.592a4.139 4.139 0 0 1-1.548-1.66c-.375-.713-.562-1.544-.562-2.496 0-.96.185-1.793.555-2.501a4.084 4.084 0 0 1 1.55-1.654c.664-.395 1.43-.592 2.3-.592.885 0 1.638.197 2.26.592a3.955 3.955 0 0 1 1.426 1.557 4.55 4.55 0 0 1 .495 2.108v.38c0 .134-.006.284-.018.452h-7.434v-1.17h5.962c-.033-.833-.304-1.482-.814-1.946-.51-.463-1.148-.695-1.913-.695-.513 0-.989.116-1.429.349a2.69 2.69 0 0 0-1.062 1.021c-.268.449-.402 1.01-.402 1.685v.504c0 .748.136 1.372.41 1.875.272.502.628.879 1.068 1.13.44.25.911.375 1.415.375.636 0 1.16-.14 1.57-.42.412-.281.712-.666.9-1.155h1.495a3.822 3.822 0 0 1-2.106 2.48c-.534.249-1.154.373-1.859.373Zm10.228 0c-.848 0-1.601-.197-2.258-.592a4.139 4.139 0 0 1-1.548-1.66c-.375-.713-.563-1.544-.563-2.496 0-.96.185-1.793.556-2.501a4.07 4.07 0 0 1 1.55-1.654c.663-.395 1.43-.592 2.3-.592.885 0 1.638.197 2.259.592a3.955 3.955 0 0 1 1.426 1.557 4.55 4.55 0 0 1 .495 2.108v.38c0 .134-.006.284-.018.452h-7.434v-1.17h5.963c-.033-.833-.305-1.482-.815-1.946-.51-.463-1.147-.695-1.912-.695-.513 0-.99.116-1.429.349a2.69 2.69 0 0 0-1.062 1.021c-.269.449-.403 1.01-.403 1.685v.504c0 .748.137 1.372.41 1.875.273.502.629.879 1.068 1.13.44.25.912.375 1.416.375.636 0 1.16-.14 1.57-.42.411-.281.711-.666.9-1.155h1.494a3.822 3.822 0 0 1-2.106 2.48c-.534.249-1.153.373-1.858.373Zm6.238-.216v-9.063h1.368l.121 1.728a3.32 3.32 0 0 1 .779-1.053 3.3 3.3 0 0 1 1.154-.662 4.72 4.72 0 0 1 1.528-.229v1.584h-.545c-.387 0-.755.05-1.105.15a2.535 2.535 0 0 0-.929.489c-.27.225-.48.532-.632.923-.152.39-.227.875-.227 1.458V239h-1.512Zm6.812 0v-9.063h1.513V239h-1.512Zm.757-10.998a1.013 1.013 0 0 1-1.044-1.044c0-.3.099-.543.297-.729.198-.186.447-.279.747-.279.288 0 .534.093.738.279a.94.94 0 0 1 .306.729c0 .3-.102.549-.306.747-.204.198-.45.297-.738.297ZM287.424 239v-9.063h1.368l.086 1.575a3.18 3.18 0 0 1 1.23-1.314c.536-.318 1.146-.477 1.83-.477.705 0 1.315.139 1.831.416.516.278.918.702 1.206 1.274.288.571.432 1.293.432 2.166V239h-1.512v-5.26c0-.904-.2-1.583-.6-2.039-.401-.456-.967-.684-1.7-.684-.503 0-.955.122-1.356.367-.4.244-.718.598-.952 1.062-.234.463-.35 1.034-.35 1.712V239h-1.513Zm13.91 4.176c-.816 0-1.538-.105-2.167-.315-.628-.21-1.117-.531-1.467-.963-.35-.432-.524-.966-.524-1.602 0-.273.057-.565.17-.875.115-.31.313-.616.595-.916.282-.3.68-.57 1.197-.81l1.044.612c-.63.264-1.043.566-1.238.905-.195.339-.292.652-.292.94 0 .396.115.726.344.99.23.264.548.462.954.594.407.132.868.198 1.384.198.513 0 .955-.073 1.327-.22.372-.148.661-.352.867-.615.205-.262.308-.572.308-.929 0-.414-.155-.762-.466-1.044-.31-.282-.902-.447-1.775-.495a17.351 17.351 0 0 1-1.789-.198 7.181 7.181 0 0 1-1.188-.297 3.513 3.513 0 0 1-.785-.387 4.922 4.922 0 0 1-.567-.45v-.414l1.755-1.737 1.314.468-1.81 1.629.235-.63c.132.096.258.184.378.263.12.08.283.15.488.212.206.061.49.117.855.168.365.051.85.101 1.456.149.819.06 1.477.204 1.975.432s.859.534 1.083.918c.223.384.335.837.335 1.359 0 .513-.141 1.002-.423 1.467-.282.465-.717.847-1.305 1.145-.588.299-1.344.448-2.268.448Zm-.018-7.02c-.76 0-1.403-.143-1.933-.428a2.964 2.964 0 0 1-1.208-1.158 3.253 3.253 0 0 1-.414-1.632c0-.6.139-1.14.416-1.622a3.058 3.058 0 0 1 1.21-1.159c.53-.29 1.173-.436 1.929-.436.762 0 1.407.145 1.935.436.528.291.93.678 1.206 1.16.276.48.414 1.021.414 1.621 0 .6-.138 1.144-.414 1.632a2.967 2.967 0 0 1-1.206 1.159c-.528.284-1.173.427-1.935.427Zm0-1.242c.645 0 1.156-.168 1.532-.504.377-.336.565-.827.565-1.472 0-.636-.188-1.12-.565-1.455-.376-.335-.887-.502-1.532-.502-.636 0-1.148.167-1.537.502-.388.334-.583.82-.583 1.455 0 .645.193 1.136.579 1.472.385.336.899.504 1.54.504Zm1.476-3.699-.45-1.278h3.708v1.134l-3.258.144Z"/>
      <path fill="#1F2933" d="M78.151 212.288c-1.092 0-2.05-.208-2.87-.625a4.47 4.47 0 0 1-1.913-1.832c-.453-.805-.68-1.782-.68-2.934h3.236c0 .513.078.958.234 1.334a1.8 1.8 0 0 0 .705.862c.315.199.717.298 1.208.298.475 0 .862-.093 1.16-.279.298-.185.517-.451.657-.798.14-.346.21-.757.21-1.232V195.2h3.24v11.882c0 1.682-.468 2.97-1.405 3.864-.937.895-2.197 1.342-3.782 1.342Zm12.251 0c-1 0-1.829-.164-2.486-.492-.657-.328-1.144-.77-1.463-1.326a3.615 3.615 0 0 1-.478-1.83c0-.738.189-1.386.566-1.945.378-.559.95-.997 1.715-1.315.766-.318 1.725-.477 2.877-.477h2.977c0-.6-.077-1.092-.23-1.48a1.687 1.687 0 0 0-.737-.871c-.338-.194-.785-.291-1.342-.291-.606 0-1.122.132-1.547.398-.425.265-.688.666-.788 1.202H86.32c.088-.865.375-1.612.86-2.242.485-.63 1.13-1.119 1.933-1.468.805-.349 1.706-.523 2.703-.523 1.143 0 2.128.19 2.956.57.828.38 1.465.931 1.91 1.654.446.724.67 1.607.67 2.65V212h-2.73l-.359-1.846a3.964 3.964 0 0 1-1.464 1.532 4.06 4.06 0 0 1-1.074.445 5.197 5.197 0 0 1-1.322.157Zm.771-2.506c.416 0 .787-.075 1.115-.224.327-.15.61-.357.847-.622a3.09 3.09 0 0 0 .567-.915c.14-.346.235-.714.281-1.104v-.032h-2.48c-.488 0-.889.063-1.201.188-.313.124-.542.298-.688.52a1.367 1.367 0 0 0-.219.768c0 .307.074.566.22.778.148.212.355.372.622.48.267.11.58.163.936.163Zm8.959 2.218v-12.084h2.851l.24 1.963a4.23 4.23 0 0 1 1.577-1.636c.682-.41 1.498-.615 2.447-.615.994 0 1.835.207 2.523.622.688.414 1.215 1.021 1.58 1.82.366.8.548 1.782.548 2.946V212h-3.226v-6.684c0-.946-.204-1.676-.613-2.19-.408-.514-1.037-.771-1.887-.771-.533 0-1.012.126-1.437.38a2.624 2.624 0 0 0-1 1.089c-.242.472-.363 1.048-.363 1.727V212h-3.24Zm20.018.288c-1.156 0-2.196-.269-3.12-.806a5.819 5.819 0 0 1-2.185-2.237c-.533-.954-.8-2.047-.8-3.28 0-1.251.269-2.353.805-3.306a5.81 5.81 0 0 1 2.194-2.23c.926-.534 1.967-.801 3.122-.801 1.171 0 2.218.267 3.14.801a5.795 5.795 0 0 1 2.182 2.227c.533.95.8 2.053.8 3.307 0 1.24-.269 2.334-.805 3.285a5.86 5.86 0 0 1-2.19 2.234c-.925.537-1.972.806-3.144.806Zm.003-2.797a2.66 2.66 0 0 0 1.435-.395c.424-.264.762-.659 1.016-1.185.254-.527.382-1.178.382-1.953 0-.784-.125-1.438-.375-1.961-.25-.524-.586-.916-1.008-1.179a2.651 2.651 0 0 0-1.427-.393c-.517 0-.99.131-1.42.393-.429.263-.77.656-1.026 1.18-.255.525-.382 1.18-.382 1.963 0 .772.127 1.422.381 1.949.254.527.593.922 1.016 1.186.424.263.893.395 1.408.395Zm21.997 2.797c-1.587 0-2.974-.357-4.163-1.07-1.189-.715-2.112-1.715-2.769-3.002-.657-1.286-.986-2.789-.986-4.508 0-1.72.34-3.242 1.017-4.564a7.536 7.536 0 0 1 2.913-3.107c1.265-.75 2.771-1.125 4.518-1.125 1.98 0 3.622.473 4.927 1.42 1.305.946 2.147 2.26 2.528 3.941h-3.617a3.196 3.196 0 0 0-1.34-1.746c-.648-.418-1.487-.627-2.515-.627-1.091 0-2.02.236-2.788.708-.768.472-1.35 1.143-1.746 2.012-.397.87-.595 1.904-.595 3.103 0 1.208.2 2.239.598 3.093.4.853.97 1.5 1.712 1.942.743.44 1.62.66 2.631.66 1.473 0 2.589-.398 3.346-1.196.757-.798 1.21-1.825 1.356-3.08h-4.13v-2.427h7.39V212h-2.988l-.252-2.127a5.78 5.78 0 0 1-1.233 1.316 4.949 4.949 0 0 1-1.639.821c-.624.185-1.349.278-2.175.278Zm15.318 0c-1 0-1.829-.164-2.486-.492-.656-.328-1.144-.77-1.463-1.326a3.615 3.615 0 0 1-.478-1.83c0-.738.189-1.386.566-1.945.378-.559.95-.997 1.715-1.315.766-.318 1.725-.477 2.878-.477h2.976c0-.6-.077-1.092-.23-1.48a1.687 1.687 0 0 0-.737-.871c-.338-.194-.785-.291-1.342-.291-.606 0-1.122.132-1.547.398-.425.265-.688.666-.787 1.202h-3.148c.088-.865.375-1.612.86-2.242.485-.63 1.13-1.119 1.934-1.468s1.705-.523 2.702-.523c1.143 0 2.128.19 2.956.57.828.38 1.465.931 1.91 1.654.446.724.67 1.607.67 2.65V212h-2.73l-.358-1.846a3.964 3.964 0 0 1-1.465 1.532 4.06 4.06 0 0 1-1.074.445 5.197 5.197 0 0 1-1.322.157Zm.771-2.506c.416 0 .788-.075 1.115-.224.327-.15.61-.357.847-.622a3.09 3.09 0 0 0 .567-.915c.141-.346.235-.714.282-1.104v-.032h-2.481c-.488 0-.888.063-1.201.188-.313.124-.542.298-.688.52a1.367 1.367 0 0 0-.219.768c0 .307.074.566.22.778.148.212.355.372.622.48.268.11.58.163.936.163Zm9.209 2.218v-12.084h2.88l.302 2.223c.302-.524.67-.972 1.103-1.344.434-.373.937-.66 1.51-.863a5.623 5.623 0 0 1 1.889-.304v3.42h-1.106c-.481 0-.926.055-1.336.164-.41.11-.765.29-1.065.542-.3.252-.531.595-.693 1.03-.163.434-.244.976-.244 1.625V212h-3.24Zm14.985.288c-1.22 0-2.3-.27-3.242-.81a5.792 5.792 0 0 1-2.207-2.232c-.53-.947-.795-2.03-.795-3.246 0-1.254.265-2.357.795-3.31a5.816 5.816 0 0 1 2.207-2.245c.941-.545 2.023-.817 3.246-.817 1.546 0 2.845.405 3.898 1.214 1.053.81 1.724 1.928 2.012 3.354h-3.429a2.235 2.235 0 0 0-.891-1.32c-.451-.32-.99-.479-1.618-.479a2.73 2.73 0 0 0-1.506.424c-.44.284-.785.691-1.036 1.223-.251.532-.377 1.17-.377 1.914 0 .553.073 1.05.217 1.49.144.44.347.816.608 1.126.261.31.57.547.926.71a2.77 2.77 0 0 0 1.168.245c.42 0 .8-.07 1.138-.211.337-.141.627-.347.869-.618.241-.272.409-.598.502-.98h3.429c-.287 1.39-.959 2.499-2.016 3.326-1.058.828-2.357 1.242-3.898 1.242Zm8.032-.288v-12.084h3.24V212h-3.24Zm1.627-13.75c-.587 0-1.067-.174-1.439-.522a1.715 1.715 0 0 1-.558-1.306c0-.531.186-.968.558-1.31.372-.341.852-.512 1.44-.512.59 0 1.072.17 1.448.513.375.341.562.778.562 1.31 0 .521-.187.956-.562 1.305-.376.348-.858.522-1.449.522Zm8.188 14.038c-1 0-1.829-.164-2.486-.492-.656-.328-1.144-.77-1.463-1.326a3.615 3.615 0 0 1-.478-1.83c0-.738.189-1.386.566-1.945.378-.559.95-.997 1.715-1.315.766-.318 1.725-.477 2.877-.477h2.977c0-.6-.077-1.092-.23-1.48a1.687 1.687 0 0 0-.737-.871c-.338-.194-.785-.291-1.342-.291-.606 0-1.122.132-1.547.398-.425.265-.688.666-.787 1.202h-3.148c.088-.865.375-1.612.86-2.242.485-.63 1.13-1.119 1.934-1.468s1.705-.523 2.702-.523c1.143 0 2.128.19 2.956.57.828.38 1.465.931 1.91 1.654.446.724.67 1.607.67 2.65V212h-2.73l-.359-1.846a3.964 3.964 0 0 1-1.464 1.532 4.06 4.06 0 0 1-1.074.445 5.197 5.197 0 0 1-1.322.157Zm.771-2.506c.416 0 .788-.075 1.115-.224.327-.15.61-.357.847-.622a3.09 3.09 0 0 0 .567-.915c.141-.346.235-.714.281-1.104v-.032h-2.48c-.488 0-.888.063-1.201.188-.313.124-.542.298-.688.52a1.367 1.367 0 0 0-.219.768c0 .307.074.566.22.778.148.212.355.372.622.48.267.11.58.163.936.163Z"/>
    </g>
    <path fill="url(#f)" fill-rule="nonzero" d="M103.36 112.32c0 8.48-6.73 15.387-15.14 15.67l-.54.01C79.02 128 72 120.98 72 112.32V96.367a4.067 4.067 0 0 1 4.794-4.001l15.366 2.791v6.83l-13.44-2.442v12.775a8.96 8.96 0 1 0 17.92 0V87.68c0-8.48 6.73-15.387 15.14-15.67l.54-.01c8.66 0 15.68 7.02 15.68 15.68v15.953a4.067 4.067 0 0 1-4.794 4.001l-15.366-2.793v-6.83l13.44 2.441V87.68a8.96 8.96 0 0 0-8.513-8.949l-.447-.011a8.96 8.96 0 0 0-8.96 8.96v24.64Z"/>
  </g>
</svg>
